<?xml version="1.0" encoding="UTF-8" standalone="no"?>
<svg
   height="24"
   viewBox="0 -960 960 960"
   width="24"
   version="1.1"
   id="svg12864"
   sodipodi:docname="apps.svg"
   inkscape:version="1.2.2 (732a01da63, 2022-12-09)"
   xmlns:inkscape="http://www.inkscape.org/namespaces/inkscape"
   xmlns:sodipodi="http://sodipodi.sourceforge.net/DTD/sodipodi-0.dtd"
   xmlns="http://www.w3.org/2000/svg"
   xmlns:svg="http://www.w3.org/2000/svg">
  <defs
     id="defs12868" />
  <sodipodi:namedview
     id="namedview12866"
     pagecolor="#ffffff"
     bordercolor="#000000"
     borderopacity="0.25"
     inkscape:showpageshadow="2"
     inkscape:pageopacity="0.0"
     inkscape:pagecheckerboard="0"
     inkscape:deskcolor="#d1d1d1"
     showgrid="false"
     inkscape:zoom="34.541667"
     inkscape:cx="11.826297"
     inkscape:cy="12.014475"
     inkscape:window-width="1920"
     inkscape:window-height="1009"
     inkscape:window-x="-8"
     inkscape:window-y="-8"
     inkscape:window-maximized="1"
     inkscape:current-layer="svg12864" />
  <path
     d="m 796.84636,-236.55185 q -0.11606,32.9998 -23.69856,56.41701 -23.58249,23.41721 -56.58228,23.30116 -32.99981,-0.11605 -56.41701,-23.69855 -23.41722,-23.58249 -23.30116,-56.5823 0.11604,-32.99979 23.69854,-56.417 23.58249,-23.4172 56.58228,-23.30116 32.9998,0.11604 56.41701,23.69855 23.41722,23.5825 23.30118,56.58229 z m 0.84399,-239.99851 q -0.11606,32.99978 -23.69855,56.417 -23.58249,23.4172 -56.58228,23.30117 -32.99981,-0.11605 -56.41702,-23.69856 -23.4172,-23.5825 -23.30115,-56.58228 0.11604,-32.99981 23.69853,-56.41701 23.5825,-23.41721 56.5823,-23.30116 32.9998,0.11606 56.41701,23.69853 23.41721,23.5825 23.30116,56.58231 z m 0.844,-239.99853 q -0.11605,32.9998 -23.69855,56.41701 -23.58249,23.41722 -56.58229,23.30116 -32.9998,-0.11604 -56.41701,-23.69854 -23.4172,-23.5825 -23.30116,-56.58229 0.11604,-32.99979 23.69855,-56.417 23.58249,-23.41722 56.5823,-23.30118 32.99979,0.11606 56.417,23.69856 23.41721,23.58249 23.30116,56.58228 z m -241.68652,479.15303 q -0.11605,32.99981 -23.69853,56.41702 -23.5825,23.41721 -56.58231,23.30116 -32.99978,-0.11606 -56.417,-23.69855 -23.4172,-23.58249 -23.30117,-56.58228 0.11605,-32.99981 23.69856,-56.41702 23.5825,-23.41721 56.58229,-23.30117 32.9998,0.11605 56.41699,23.69855 23.41722,23.5825 23.30117,56.58229 z m 0.844,-239.9985 q -0.11604,32.99979 -23.69855,56.41701 -23.58249,23.4172 -56.58229,23.30115 -32.99979,-0.11604 -56.41701,-23.69855 -23.4172,-23.5825 -23.30115,-56.58229 0.11604,-32.9998 23.69855,-56.41701 23.5825,-23.4172 56.58229,-23.30115 32.99979,0.11605 56.41701,23.69855 23.4172,23.58249 23.30115,56.58229 z m 0.84401,-239.99853 q -0.11605,32.99981 -23.69856,56.41701 -23.5825,23.41721 -56.58228,23.30116 -32.9998,-0.11604 -56.417,-23.69854 -23.41722,-23.58249 -23.30117,-56.58229 0.11605,-32.9998 23.69854,-56.417 23.5825,-23.41722 56.5823,-23.30117 32.99978,0.11606 56.417,23.69855 23.4172,23.58249 23.30117,56.58228 z m -241.68652,479.15303 q -0.11604,32.9998 -23.69855,56.41701 -23.58249,23.41722 -56.58228,23.30117 -32.9998,-0.11604 -56.41702,-23.69855 -23.41721,-23.58249 -23.30116,-56.58228 0.11605,-32.99981 23.69855,-56.41702 23.58249,-23.41721 56.58229,-23.30116 32.9998,0.11604 56.41701,23.69854 23.4172,23.5825 23.30116,56.58229 z m 0.84401,-239.9985 q -0.11605,32.99979 -23.69855,56.41699 -23.5825,23.41722 -56.5823,23.30117 -32.9998,-0.11605 -56.417,-23.69854 -23.41722,-23.5825 -23.30117,-56.5823 0.11606,-32.99978 23.69855,-56.417 23.58249,-23.4172 56.58229,-23.30116 32.9998,0.11604 56.41701,23.69855 23.41721,23.5825 23.30117,56.58229 z m 0.84399,-239.99852 q -0.11604,32.9998 -23.69854,56.41701 -23.5825,23.41719 -56.5823,23.30115 -32.99979,-0.11604 -56.417,-23.69854 -23.41722,-23.58249 -23.30117,-56.58229 0.11605,-32.9998 23.69855,-56.41701 23.58249,-23.41721 56.58228,-23.30116 32.99981,0.11606 56.41702,23.69855 23.41722,23.58249 23.30116,56.58229 z"
     id="path12862"
     style="fill:#002b00;fill-opacity:0.33670035" />
</svg>
