<?xml version="1.0" encoding="UTF-8" standalone="no"?>
<svg
   height="24"
   viewBox="0 -960 960 960"
   width="24"
   version="1.1"
   id="svg18138"
   sodipodi:docname="keys.svg"
   inkscape:version="1.2.2 (732a01da63, 2022-12-09)"
   xmlns:inkscape="http://www.inkscape.org/namespaces/inkscape"
   xmlns:sodipodi="http://sodipodi.sourceforge.net/DTD/sodipodi-0.dtd"
   xmlns="http://www.w3.org/2000/svg"
   xmlns:svg="http://www.w3.org/2000/svg">
  <defs
     id="defs18142" />
  <sodipodi:namedview
     id="namedview18140"
     pagecolor="#ffffff"
     bordercolor="#000000"
     borderopacity="0.25"
     inkscape:showpageshadow="2"
     inkscape:pageopacity="0.0"
     inkscape:pagecheckerboard="0"
     inkscape:deskcolor="#d1d1d1"
     showgrid="false"
     inkscape:zoom="34.541667"
     inkscape:cx="11.826297"
     inkscape:cy="12.014475"
     inkscape:window-width="1920"
     inkscape:window-height="1009"
     inkscape:window-x="-8"
     inkscape:window-y="-8"
     inkscape:window-maximized="1"
     inkscape:current-layer="svg18138" />
  <path
     d="m 280,-280 v -80 h 400 v 80 z M 120,-440 v -80 h 80 v 80 z m 160,0 v -80 h 80 v 80 z m 160,0 v -80 h 80 v 80 z m 160,0 v -80 h 80 v 80 z m 160,0 v -80 h 80 v 80 z M 120,-600 v -80 h 80 v 80 z m 160,0 v -80 h 80 v 80 z m 160,0 v -80 h 80 v 80 z m 160,0 v -80 h 80 v 80 z m 160,0 v -80 h 80 v 80 z"
     id="path18136"
     style="fill:#002d00;fill-opacity:0.643098" />
  <rect
     style="fill:#ffffff;fill-opacity:0.643098;stroke-width:40"
     id="rect22318"
     width="82.219543"
     height="83.377563"
     x="118.11823"
     y="-683.23279" />
</svg>
